<?xml version="1.0" encoding="utf-8"?>
<!-- Generator: Adobe Illustrator 16.0.0, SVG Export Plug-In . SVG Version: 6.00 Build 0)  -->
<!DOCTYPE svg PUBLIC "-//W3C//DTD SVG 1.1//EN" "http://www.w3.org/Graphics/SVG/1.1/DTD/svg11.dtd">
<svg version="1.1" id="Layer_1" xmlns="http://www.w3.org/2000/svg" xmlns:xlink="http://www.w3.org/1999/xlink" x="0px" y="0px"
	 width="249.025px" height="76.485px" viewBox="0 0 249.025 76.485" enable-background="new 0 0 249.025 76.485"
	 xml:space="preserve">
<g>
	<g id="XMLID_40_">
		<g>
			<g enable-background="new    ">
				<g enable-background="new    ">
					<defs>
						<path id="SVGID_1_" enable-background="new    " d="M0.26,4.745l3.753-4.328C3.985,0.448,3.96,0.481,3.937,0.517L0.184,4.845
							C0.208,4.81,0.233,4.776,0.26,4.745z"/>
					</defs>
					<clipPath id="SVGID_2_">
						<use xlink:href="#SVGID_1_"  overflow="visible"/>
					</clipPath>
					<g clip-path="url(#SVGID_2_)" enable-background="new    ">
						<path fill="#006A3C" d="M3.937,0.517L0.184,4.845c0.023-0.035,0.049-0.069,0.076-0.1l3.753-4.328
							C3.985,0.448,3.96,0.481,3.937,0.517"/>
					</g>
				</g>
				<g enable-background="new    ">
					<defs>
						<path id="SVGID_3_" enable-background="new    " d="M37.641,38.075l-3.753,4.328c-3.555-5.713-7.119-11.435-10.674-17.166
							c-4.161-6.702-8.323-13.414-12.476-20.116c-0.147-0.24-0.285-0.481-0.423-0.722l3.753-4.328
							c0.138,0.241,0.276,0.482,0.423,0.722c4.152,6.703,8.314,13.414,12.476,20.116C30.522,26.64,34.085,32.362,37.641,38.075z"/>
					</defs>
					<clipPath id="SVGID_4_">
						<use xlink:href="#SVGID_3_"  overflow="visible"/>
					</clipPath>
					<g clip-path="url(#SVGID_4_)" enable-background="new    ">
						<path fill="#094D80" d="M37.641,38.075l-3.753,4.328c-3.555-5.713-7.119-11.435-10.674-17.166
							c-4.161-6.702-8.323-13.414-12.476-20.116c-0.147-0.24-0.285-0.481-0.423-0.722l3.753-4.328
							c0.138,0.241,0.276,0.482,0.423,0.722c4.152,6.703,8.314,13.414,12.476,20.116C30.522,26.64,34.085,32.362,37.641,38.075"/>
					</g>
				</g>
				<g>
					<polygon fill="#094A7B" points="41.866,44.867 38.113,49.195 33.888,42.403 37.641,38.075 					"/>
				</g>
				<g>
					<path fill="#1088E2" d="M19.131,0c1.179,0,2.207,0.026,3.137,0.089c2.298,0.143,3.746,1.756,4.563,3.075
						c2.638,4.296,5.292,8.583,7.947,12.87l2.591,4.207c0.79,1.274,1.58,2.531,2.361,3.797c1.892,3.021,3.831,6.159,5.707,9.26
						c0.938,1.568,1.039,3.306,0.271,4.91c-0.983,2.05-2.206,4.181-3.843,6.659l-4.226-6.792
						c-3.555-5.712-7.119-11.435-10.674-17.166c-4.161-6.702-8.323-13.413-12.476-20.116c-0.147-0.24-0.285-0.481-0.423-0.722
						c0.661,0,1.312-0.017,1.974-0.026C17.059,0.018,18.113,0,19.131,0z"/>
				</g>
				<g enable-background="new    ">
					<defs>
						<path id="SVGID_5_" enable-background="new    " d="M23.521,34.046l-3.752,4.328c-1.04-2.317-2.435-4.457-3.784-6.533
							c-0.542-0.847-1.101-1.711-1.635-2.585c-3.087-5.036-6.257-10.134-9.325-15.071C3.583,11.877,2.15,9.569,0.708,7.251
							c-0.22-0.366-0.432-0.687-0.553-0.999c-0.215-0.553-0.206-1.07,0.03-1.408l3.753-4.328c-0.236,0.338-0.245,0.855-0.03,1.408
							C4.029,2.237,4.24,2.558,4.46,2.923c1.442,2.317,2.875,4.625,4.317,6.934c3.068,4.938,6.237,10.036,9.325,15.071
							c0.534,0.874,1.093,1.738,1.635,2.585C21.086,29.59,22.48,31.729,23.521,34.046z"/>
					</defs>
					<clipPath id="SVGID_6_">
						<use xlink:href="#SVGID_5_"  overflow="visible"/>
					</clipPath>
					<g clip-path="url(#SVGID_6_)" enable-background="new    ">
						<path fill="#006A3C" d="M23.521,34.046l-3.752,4.328c-1.04-2.317-2.435-4.457-3.784-6.533
							c-0.542-0.847-1.101-1.711-1.635-2.585c-3.087-5.036-6.257-10.134-9.325-15.071C3.583,11.877,2.15,9.569,0.708,7.251
							c-0.22-0.366-0.432-0.687-0.553-0.999c-0.215-0.553-0.206-1.07,0.03-1.408l3.753-4.328c-0.236,0.338-0.245,0.855-0.03,1.408
							C4.029,2.237,4.24,2.558,4.46,2.923c1.442,2.317,2.875,4.625,4.317,6.934c3.068,4.938,6.237,10.036,9.325,15.071
							c0.534,0.874,1.093,1.738,1.635,2.585C21.086,29.59,22.48,31.729,23.521,34.046"/>
					</g>
				</g>
				<g enable-background="new    ">
					<defs>
						<path id="SVGID_7_" enable-background="new    " d="M30.562,45.142L26.81,49.47c-0.432-0.694-0.863-1.39-1.287-2.094
							c-1.02-1.667-2.077-3.378-3.142-5.054c-0.248-0.392-0.478-0.793-0.7-1.194c-0.534-0.954-1.096-1.925-1.914-2.754l3.752-4.328
							c0.818,0.829,1.38,1.8,1.914,2.754c0.222,0.401,0.452,0.803,0.7,1.194c1.065,1.676,2.122,3.387,3.142,5.054
							C29.699,43.752,30.131,44.448,30.562,45.142z"/>
					</defs>
					<clipPath id="SVGID_8_">
						<use xlink:href="#SVGID_7_"  overflow="visible"/>
					</clipPath>
					<g clip-path="url(#SVGID_8_)" enable-background="new    ">
						<path fill="#006A3C" d="M30.562,45.142L26.81,49.47c-0.432-0.694-0.863-1.39-1.287-2.094c-1.02-1.667-2.077-3.378-3.142-5.054
							c-0.248-0.392-0.478-0.793-0.7-1.194c-0.534-0.954-1.096-1.925-1.914-2.754l3.752-4.328c0.818,0.829,1.38,1.8,1.914,2.754
							c0.222,0.401,0.452,0.803,0.7,1.194c1.065,1.676,2.122,3.387,3.142,5.054C29.699,43.752,30.131,44.448,30.562,45.142"/>
					</g>
				</g>
				<g enable-background="new    ">
					<defs>
						<path id="SVGID_9_" enable-background="new    " d="M35.648,55.205l-3.753,4.328c0.126-0.962-0.087-1.96-0.64-2.923
							c-1.465-2.603-2.925-4.946-4.446-7.14l3.752-4.328c1.521,2.193,2.981,4.537,4.446,7.14
							C35.561,53.245,35.774,54.243,35.648,55.205z"/>
					</defs>
					<clipPath id="SVGID_10_">
						<use xlink:href="#SVGID_9_"  overflow="visible"/>
					</clipPath>
					<g clip-path="url(#SVGID_10_)" enable-background="new    ">
						<path fill="#006A3C" d="M35.648,55.205l-3.753,4.328c0.126-0.962-0.087-1.96-0.64-2.923c-1.465-2.603-2.925-4.946-4.446-7.14
							l3.752-4.328c1.521,2.193,2.981,4.537,4.446,7.14C35.561,53.245,35.774,54.243,35.648,55.205"/>
					</g>
				</g>
				<g>
					<path fill="#00BB6A" d="M7.114,0.04c1.243,0,2.486,0.012,3.729,0.022c0.715,0.009,1.42,0.009,2.135,0.018l0.102,0.196
						c0.184,0.321,0.368,0.633,0.561,0.945c4.153,6.703,8.314,13.414,12.476,20.116c3.555,5.722,7.119,11.444,10.674,17.175
						l4.438,7.148c-1.75,3.173-3.57,6.443-5.58,9.545c0.126-0.962-0.087-1.96-0.64-2.923c-1.465-2.603-2.925-4.946-4.446-7.14
						c-0.431-0.694-0.863-1.39-1.286-2.094c-1.02-1.667-2.077-3.378-3.142-5.054c-0.248-0.392-0.478-0.793-0.7-1.194
						c-0.534-0.954-1.096-1.925-1.914-2.754c-1.04-2.317-2.435-4.457-3.783-6.533c-0.542-0.847-1.101-1.711-1.635-2.585
						c-3.087-5.036-6.257-10.134-9.325-15.071C7.335,7.549,5.903,5.241,4.46,2.923C4.24,2.558,4.029,2.237,3.907,1.925
						c-0.215-0.553-0.206-1.069,0.03-1.408c0.2-0.304,0.545-0.463,1.01-0.463C5.669,0.043,6.392,0.04,7.114,0.04z"/>
				</g>
				<g>
					<polygon fill="#790E0E" points="24.423,55.9 20.67,60.228 26.055,50.291 29.808,45.962 					"/>
				</g>
				<g enable-background="new    ">
					<defs>
						<path id="SVGID_11_" enable-background="new    " d="M9.174,62.639l-3.753,4.328C9.656,59.694,14.02,52.163,18.369,44.8
							c0.989-1.675,1.462-3.253,1.426-4.849l3.753-4.328c0.036,1.595-0.437,3.173-1.426,4.848
							C17.773,47.834,13.409,55.366,9.174,62.639z"/>
					</defs>
					<clipPath id="SVGID_12_">
						<use xlink:href="#SVGID_11_"  overflow="visible"/>
					</clipPath>
					<g clip-path="url(#SVGID_12_)" enable-background="new    ">
						<path fill="#856A0C" d="M9.174,62.639l-3.753,4.328C9.656,59.694,14.02,52.163,18.369,44.8
							c0.989-1.675,1.462-3.253,1.426-4.849l3.753-4.328c0.036,1.595-0.437,3.173-1.426,4.848
							C17.773,47.834,13.409,55.366,9.174,62.639"/>
					</g>
				</g>
				<g enable-background="new    ">
					<defs>
						<path id="SVGID_13_" enable-background="new    " d="M16.814,70.044l-3.753,4.328c1.047-1.97,2.103-3.948,3.159-5.917
							c1.48-2.737,2.961-5.473,4.45-8.228l3.753-4.328c-1.489,2.755-2.97,5.49-4.45,8.228
							C18.917,66.096,17.861,68.075,16.814,70.044z"/>
					</defs>
					<clipPath id="SVGID_14_">
						<use xlink:href="#SVGID_13_"  overflow="visible"/>
					</clipPath>
					<g clip-path="url(#SVGID_14_)" enable-background="new    ">
						<path fill="#7E0F0F" d="M16.814,70.044l-3.753,4.328c1.047-1.97,2.103-3.948,3.159-5.917c1.48-2.737,2.961-5.473,4.45-8.228
							l3.753-4.328c-1.489,2.755-2.97,5.49-4.45,8.228C18.917,66.096,17.861,68.075,16.814,70.044"/>
					</g>
				</g>
				<g enable-background="new    ">
					<defs>
						<path id="SVGID_15_" enable-background="new    " d="M27.258,69.935l-3.752,4.328c-1.2,1.384-2.778,2.062-4.793,2.062
							c-1.742,0-3.518,0.054-5.232,0.107l3.753-4.328c1.714-0.054,3.491-0.107,5.232-0.107
							C24.481,71.997,26.059,71.319,27.258,69.935z"/>
					</defs>
					<clipPath id="SVGID_16_">
						<use xlink:href="#SVGID_15_"  overflow="visible"/>
					</clipPath>
					<g clip-path="url(#SVGID_16_)" enable-background="new    ">
						<path fill="#7E0F0F" d="M27.258,69.935l-3.752,4.328c-1.2,1.384-2.778,2.062-4.793,2.062c-1.742,0-3.518,0.054-5.232,0.107
							l3.753-4.328c1.714-0.054,3.491-0.107,5.232-0.107C24.481,71.997,26.059,71.319,27.258,69.935"/>
					</g>
				</g>
				<g enable-background="new    ">
					<defs>
						<path id="SVGID_17_" enable-background="new    " d="M17.233,72.104l-3.753,4.328c-0.518,0.026-1.026,0.044-1.535,0.053
							l3.752-4.328C16.207,72.148,16.716,72.13,17.233,72.104z"/>
					</defs>
					<clipPath id="SVGID_18_">
						<use xlink:href="#SVGID_17_"  overflow="visible"/>
					</clipPath>
					<g clip-path="url(#SVGID_18_)" enable-background="new    ">
						<path fill="#7E0F0F" d="M17.233,72.104l-3.753,4.328c-0.518,0.026-1.026,0.044-1.535,0.053l3.752-4.328
							C16.207,72.148,16.716,72.13,17.233,72.104"/>
					</g>
				</g>
				<g>
					<polygon fill="#790E0E" points="15.698,72.157 11.945,76.485 13.061,74.373 16.814,70.044 					"/>
				</g>
				<g>
					<path fill="#DE1A1A" d="M29.808,45.962c1.445,1.979,2.839,4.082,4.255,6.399c0.579,0.954,0.756,1.908,0.531,2.843
						c-0.108,0.464-0.023,0.775,0.133,0.98c-1.363,2.853-2.895,5.669-4.385,8.396c-0.692,1.283-1.394,2.566-2.069,3.851
						c-1.272,2.396-3.164,3.564-5.808,3.564c-1.742,0-3.519,0.054-5.232,0.107c-0.518,0.026-1.026,0.044-1.536,0.053l1.116-2.112
						c1.047-1.97,2.103-3.948,3.159-5.917c1.48-2.737,2.961-5.473,4.45-8.228L29.808,45.962z"/>
				</g>
				<g>
					<polygon fill="#80660C" points="5.383,69.171 1.63,73.5 5.421,66.967 9.174,62.639 					"/>
				</g>
				<g enable-background="new    ">
					<defs>
						<path id="SVGID_19_" enable-background="new    " d="M4.993,71.409L1.24,75.737c-0.237-0.303-0.281-0.731-0.128-1.203
							c0.11-0.349,0.301-0.687,0.518-1.034l3.753-4.328c-0.217,0.348-0.408,0.686-0.518,1.034
							C4.712,70.677,4.756,71.106,4.993,71.409z"/>
					</defs>
					<clipPath id="SVGID_20_">
						<use xlink:href="#SVGID_19_"  overflow="visible"/>
					</clipPath>
					<g clip-path="url(#SVGID_20_)" enable-background="new    ">
						<path fill="#856A0C" d="M4.993,71.409L1.24,75.737c-0.237-0.303-0.281-0.731-0.128-1.203c0.11-0.349,0.301-0.687,0.518-1.034
							l3.753-4.328c-0.217,0.348-0.408,0.686-0.518,1.034C4.712,70.677,4.756,71.106,4.993,71.409"/>
					</g>
				</g>
				<g enable-background="new    ">
					<defs>
						<path id="SVGID_21_" enable-background="new    " d="M14.058,71.835l-3.752,4.328c-0.724,0-1.447,0.01-2.18,0.019
							c-1.383,0.013-2.766,0.025-4.149,0.025c-0.573,0-1.146-0.002-1.719-0.008c-0.447,0-0.807-0.16-1.017-0.463l3.753-4.328
							c0.21,0.303,0.57,0.463,1.017,0.463c0.573,0.006,1.146,0.008,1.719,0.008c1.383,0,2.766-0.013,4.149-0.025
							C12.611,71.845,13.334,71.835,14.058,71.835z"/>
					</defs>
					<clipPath id="SVGID_22_">
						<use xlink:href="#SVGID_21_"  overflow="visible"/>
					</clipPath>
					<g clip-path="url(#SVGID_22_)" enable-background="new    ">
						<path fill="#856A0C" d="M14.058,71.835l-3.752,4.328c-0.724,0-1.447,0.01-2.18,0.019c-1.383,0.013-2.766,0.025-4.149,0.025
							c-0.573,0-1.146-0.002-1.719-0.008c-0.447,0-0.807-0.16-1.017-0.463l3.753-4.328c0.21,0.303,0.57,0.463,1.017,0.463
							c0.573,0.006,1.146,0.008,1.719,0.008c1.383,0,2.766-0.013,4.149-0.025C12.611,71.845,13.334,71.835,14.058,71.835"/>
					</g>
				</g>
				<g>
					<path fill="#EABB16" d="M23.548,35.624c0.339,0.499,0.643,1.034,0.956,1.586c0.23,0.401,0.47,0.82,0.727,1.221
						c1.056,1.658,2.104,3.369,3.114,5.017c0.387,0.643,0.781,1.274,1.167,1.917l-5.918,10.089c-1.58,2.701-3.16,5.384-4.73,8.075
						c-1.128,1.934-2.247,3.868-3.357,5.811l-1.449,2.495c-0.723,0-1.447,0.01-2.179,0.019c-1.383,0.013-2.766,0.025-4.149,0.025
						c-0.573,0-1.146-0.002-1.719-0.008c-0.447,0-0.807-0.16-1.017-0.463c-0.237-0.303-0.281-0.731-0.128-1.203
						c0.11-0.349,0.301-0.687,0.518-1.034l3.791-6.532c4.234-7.273,8.599-14.805,12.947-22.167
						C23.111,38.797,23.584,37.219,23.548,35.624z"/>
				</g>
			</g>
		</g>
	</g>
	
		<text transform="matrix(1 0 0 1 87.8491 57.7583)" fill="#FFFFFF" font-family="'OpenSans-Semibold'" font-size="6.8404" letter-spacing="5">BELO HORIZONTE</text>
	<text transform="matrix(1 0 0 1 61.8315 41.9224)"><tspan x="0" y="0" fill="#FFFFFF" font-family="'OpenSans-Extrabold'" font-size="25.018" letter-spacing="2">DEV</tspan><tspan x="56.955" y="0" fill="#FFFFFF" font-family="'OpenSans-Light'" font-size="25.018" letter-spacing="2">FEST</tspan><tspan x="120.064" y="0" fill="#FFFFFF" font-family="'OpenSans-Semibold'" font-size="25.018" letter-spacing="2">2017</tspan></text>
</g>
</svg>
